<svg width="718" height="204" viewBox="0 0 718 204" fill="none" xmlns="http://www.w3.org/2000/svg">
<path d="M1.66003 40.4709C-1.34645 28.6104 0.407333 22.3705 1.66003 20.7332C8.1026 20.7332 12.9343 37.7023 14.5448 46.1869C17.5871 57.5294 45.057 111.563 57.2261 131.39C66.9613 147.251 87.7084 171.401 96.8651 181.493C96.4773 176.045 95.165 159.38 93.0175 136.302C90.3332 107.454 92.3017 59.137 93.0175 40.4709C93.7333 21.8049 101.428 -2.39843 106.708 0.191597C111.987 2.78162 106.708 32.8795 103.665 59.137C100.623 85.3945 103.665 126.746 106.708 159.88C109.75 193.014 103.308 195.962 98.7441 195.962C94.1807 195.962 85.0539 187.209 79.6852 181.136C74.3165 175.063 43.1779 134.784 35.5723 120.315C27.9666 105.847 5.41813 55.2966 1.66003 40.4709Z" fill="#1E1E1E"/>
<path d="M131.404 120.494C126.751 106.204 115.626 55.8922 110.645 32.5225C109.452 30.4088 108.355 25.6098 113.509 23.3234C119.951 20.4655 131.404 80.4826 133.462 90.3068C135.109 98.1662 145.602 133.95 150.642 150.86L154.221 146.841V156.933C154.221 160.505 153.148 162.292 148.226 158.451C143.305 154.611 137.22 138.356 131.404 120.494Z" fill="#1E1E1E"/>
<path d="M150.641 63.0672C149.568 51.421 149.001 28.1465 148.852 17.965C145.81 17.1314 140.888 14.8034 145.541 12.1598C151.357 8.85527 153.326 14.1246 155.115 17.965C156.905 21.8054 160.753 68.4258 162.095 87.8957C163.437 107.366 168.806 137.285 171.937 153.093C174.008 163.545 175.121 166.542 175.58 166.864C175.653 166.829 175.722 166.793 175.785 166.757C175.744 166.881 175.676 166.932 175.58 166.864C174.431 167.41 172.031 167.768 170.148 165.418C167.642 162.292 162.989 145.948 160.753 135.677C158.516 125.406 151.984 77.6249 150.641 63.0672Z" fill="#1E1E1E"/>
<path d="M173.996 83.161C170.059 64.7271 167.822 33.623 167.196 20.3752C166.6 17.6959 166.409 12.1586 170.417 11.4441C174.426 10.7296 175.667 17.1005 175.786 20.3752C176.979 31.42 179.723 56.7606 181.155 69.7643C182.944 86.0189 195.471 125.852 199.229 136.569C202.236 145.143 205.135 147.465 206.209 147.554L201.466 150.68C200.661 150.293 197.887 148.144 193.234 142.642C187.418 135.765 178.918 106.203 173.996 83.161Z" fill="#1E1E1E"/>
<path d="M201.199 64.943C198.121 59.0127 190.312 41.8114 186.793 33.952C185.361 28.6827 187.956 26.3606 189.387 25.4674C190.533 24.7529 193.981 28.2063 195.561 30.0223L205.583 50.1173L217.126 74.41C218.349 70.4207 221.188 61.1562 222.763 56.0119C224.338 50.8675 232.307 24.6339 236.095 12.1601C237.497 8.61739 241.643 1.31769 247.012 0.460304C253.723 -0.61143 252.559 6.26553 251.396 8.31969C250.233 10.3738 248.712 9.83798 247.012 10.4632C245.312 11.0883 242.538 23.5919 241.732 26.3606C240.927 29.1292 229.653 76.8214 227.953 83.2518C226.253 89.6822 226.521 91.647 227.237 94.7729C227.953 97.8988 252.022 137.017 254.08 138C255.727 138.785 258.047 137.672 259.002 137.017C258.286 138.595 255.888 141.679 252.022 141.393C247.191 141.036 239.495 131.837 236.453 128.533C234.019 125.889 225.835 112.724 222.047 106.473L216.589 131.033C211.787 149.55 202.04 187.21 201.467 189.711C200.894 192.211 199.916 200.279 199.498 204.001C198.663 203.107 196.743 199.553 195.74 192.479C194.488 183.638 201.199 149.521 201.914 142.465C202.487 136.821 210.266 104.984 214.083 89.7715C211.071 83.9663 204.277 70.8733 201.199 64.943Z" fill="#1E1E1E"/>
<path d="M319.6 158C312.8 158 306.85 156.75 301.75 154.25C296.75 151.65 292.85 147.95 290.05 143.15C287.35 138.25 286 132.55 286 126.05V77.45C286 70.85 287.35 65.15 290.05 60.35C292.85 55.55 296.75 51.9 301.75 49.4C306.85 46.8 312.8 45.5 319.6 45.5C326.4 45.5 332.3 46.8 337.3 49.4C342.3 52 346.15 55.7 348.85 60.5C351.65 65.2 353.05 70.85 353.05 77.45H336.85C336.85 71.75 335.35 67.4 332.35 64.4C329.35 61.4 325.1 59.9 319.6 59.9C314.1 59.9 309.8 61.4 306.7 64.4C303.7 67.4 302.2 71.7 302.2 77.3V126.05C302.2 131.65 303.7 136 306.7 139.1C309.8 142.2 314.1 143.75 319.6 143.75C325.1 143.75 329.35 142.2 332.35 139.1C335.35 136 336.85 131.65 336.85 126.05V113.75H316.45V99.5H353.05V126.05C353.05 132.55 351.65 138.2 348.85 143C346.15 147.8 342.3 151.5 337.3 154.1C332.3 156.7 326.4 158 319.6 158Z" fill="#1E1E1E"/>
<path d="M374.891 156.5V47H409.241C416.141 47 422.141 48.35 427.241 51.05C432.341 53.65 436.291 57.35 439.091 62.15C441.991 66.95 443.441 72.6 443.441 79.1C443.441 86.4 441.541 92.75 437.741 98.15C434.041 103.45 428.991 107.2 422.591 109.4L444.941 156.5H426.491L406.541 111.5H391.091V156.5H374.891ZM391.091 97.25H409.241C414.641 97.25 418.941 95.65 422.141 92.45C425.341 89.15 426.941 84.8 426.941 79.4C426.941 73.8 425.341 69.4 422.141 66.2C418.941 63 414.641 61.4 409.241 61.4H391.091V97.25Z" fill="#1E1E1E"/>
<path d="M495.583 158C488.783 158 482.883 156.75 477.883 154.25C472.983 151.65 469.183 147.95 466.483 143.15C463.883 138.25 462.583 132.55 462.583 126.05V77.45C462.583 70.85 463.883 65.15 466.483 60.35C469.183 55.55 472.983 51.9 477.883 49.4C482.883 46.8 488.783 45.5 495.583 45.5C502.383 45.5 508.233 46.8 513.133 49.4C518.133 51.9 521.933 55.55 524.533 60.35C527.233 65.15 528.583 70.8 528.583 77.3V126.05C528.583 132.55 527.233 138.25 524.533 143.15C521.933 147.95 518.133 151.65 513.133 154.25C508.233 156.75 502.383 158 495.583 158ZM495.583 143.6C501.083 143.6 505.233 142.1 508.033 139.1C510.933 136 512.383 131.65 512.383 126.05V77.45C512.383 71.75 510.933 67.4 508.033 64.4C505.233 61.4 501.083 59.9 495.583 59.9C490.183 59.9 486.033 61.4 483.133 64.4C480.233 67.4 478.783 71.75 478.783 77.45V126.05C478.783 131.65 480.233 136 483.133 139.1C486.033 142.1 490.183 143.6 495.583 143.6Z" fill="#1E1E1E"/>
<path d="M583.874 158C573.374 158 565.274 155.15 559.574 149.45C553.874 143.65 551.024 135.8 551.024 125.9V47H567.224V125.9C567.224 131.4 568.574 135.75 571.274 138.95C574.074 142.15 578.274 143.75 583.874 143.75C589.374 143.75 593.524 142.15 596.324 138.95C599.124 135.75 600.524 131.4 600.524 125.9V47H616.724V125.9C616.724 135.8 613.874 143.65 608.174 149.45C602.474 155.15 594.374 158 583.874 158Z" fill="#1E1E1E"/>
<path d="M639.766 156.5V47H675.616C682.716 47 688.866 48.35 694.066 51.05C699.366 53.75 703.416 57.6 706.216 62.6C709.116 67.5 710.566 73.3 710.566 80C710.566 86.6 709.116 92.4 706.216 97.4C703.316 102.4 699.266 106.25 694.066 108.95C688.866 111.65 682.716 113 675.616 113H655.966V156.5H639.766ZM655.966 98.45H675.616C681.216 98.45 685.666 96.8 688.966 93.5C692.366 90.1 694.066 85.6 694.066 80C694.066 74.3 692.366 69.8 688.966 66.5C685.666 63.2 681.216 61.55 675.616 61.55H655.966V98.45Z" fill="#1E1E1E"/>
</svg>
