<svg width="491" height="140" viewBox="0 0 491 140" fill="none" xmlns="http://www.w3.org/2000/svg">
<rect width="491" height="140" fill="white"/>
<path d="M57.9386 116L34.4186 51.2H47.0786L64.2986 100.28L81.5186 51.2H94.1786L70.6586 116H57.9386ZM127.849 117.62C123.569 117.62 119.549 116.82 115.789 115.22C112.029 113.58 108.769 111.26 106.009 108.26C103.289 105.26 101.309 101.72 100.069 97.64L112.189 94.28C113.349 98 115.369 100.86 118.249 102.86C121.129 104.82 124.329 105.78 127.849 105.74C131.009 105.7 133.789 104.96 136.189 103.52C138.589 102.08 140.469 100.14 141.829 97.7C143.189 95.22 143.869 92.38 143.869 89.18C143.869 84.38 142.369 80.42 139.369 77.3C136.409 74.18 132.529 72.62 127.729 72.62C126.369 72.62 124.969 72.82 123.529 73.22C122.129 73.62 120.809 74.14 119.569 74.78L113.689 64.88L144.169 37.94L145.489 41.54H103.489V29.6H155.449V41.54L130.129 65.9L130.009 61.82C135.449 61.82 140.169 63.04 144.169 65.48C148.169 67.88 151.249 71.16 153.409 75.32C155.609 79.44 156.709 84.06 156.709 89.18C156.709 94.7 155.409 99.6 152.809 103.88C150.249 108.16 146.789 111.52 142.429 113.96C138.109 116.4 133.249 117.62 127.849 117.62ZM163.821 116L188.061 83.24L164.361 51.2H179.241L195.381 73.46L211.341 51.2H226.221L202.521 83.24L226.821 116H211.881L195.381 93.02L178.761 116H163.821ZM236.291 116V27.8H248.831V116H236.291ZM283.829 117.8C279.029 117.8 275.009 116.92 271.769 115.16C268.529 113.36 266.069 111 264.389 108.08C262.749 105.12 261.929 101.88 261.929 98.36C261.929 95.08 262.509 92.2 263.669 89.72C264.829 87.24 266.549 85.14 268.829 83.42C271.109 81.66 273.909 80.24 277.229 79.16C280.109 78.32 283.369 77.58 287.009 76.94C290.649 76.3 294.469 75.7 298.469 75.14C302.509 74.58 306.509 74.02 310.469 73.46L305.909 75.98C305.989 70.9 304.909 67.14 302.669 64.7C300.469 62.22 296.669 60.98 291.269 60.98C287.869 60.98 284.749 61.78 281.909 63.38C279.069 64.94 277.089 67.54 275.969 71.18L264.269 67.58C265.869 62.02 268.909 57.6 273.389 54.32C277.909 51.04 283.909 49.4 291.389 49.4C297.189 49.4 302.229 50.4 306.509 52.4C310.829 54.36 313.989 57.48 315.989 61.76C317.029 63.88 317.669 66.12 317.909 68.48C318.149 70.84 318.269 73.38 318.269 76.1V116H307.169V101.18L309.329 103.1C306.649 108.06 303.229 111.76 299.069 114.2C294.949 116.6 289.869 117.8 283.829 117.8ZM286.049 107.54C289.609 107.54 292.669 106.92 295.229 105.68C297.789 104.4 299.849 102.78 301.409 100.82C302.969 98.86 303.989 96.82 304.469 94.7C305.149 92.78 305.529 90.62 305.609 88.22C305.729 85.82 305.789 83.9 305.789 82.46L309.869 83.96C305.909 84.56 302.309 85.1 299.069 85.58C295.829 86.06 292.889 86.54 290.249 87.02C287.649 87.46 285.329 88 283.289 88.64C281.569 89.24 280.029 89.96 278.669 90.8C277.349 91.64 276.289 92.66 275.489 93.86C274.729 95.06 274.349 96.52 274.349 98.24C274.349 99.92 274.769 101.48 275.609 102.92C276.449 104.32 277.729 105.44 279.449 106.28C281.169 107.12 283.369 107.54 286.049 107.54ZM362.95 117.8C356.75 117.8 351.55 116.3 347.35 113.3C343.15 110.26 339.97 106.16 337.81 101C335.65 95.84 334.57 90.02 334.57 83.54C334.57 77.06 335.63 71.24 337.75 66.08C339.91 60.92 343.07 56.86 347.23 53.9C351.43 50.9 356.59 49.4 362.71 49.4C368.79 49.4 374.03 50.9 378.43 53.9C382.87 56.86 386.29 60.92 388.69 66.08C391.09 71.2 392.29 77.02 392.29 83.54C392.29 90.02 391.09 95.86 388.69 101.06C386.33 106.22 382.95 110.3 378.55 113.3C374.19 116.3 368.99 117.8 362.95 117.8ZM332.47 116V29.6H345.07V69.38H343.63V116H332.47ZM361.21 106.46C365.21 106.46 368.51 105.44 371.11 103.4C373.75 101.36 375.71 98.62 376.99 95.18C378.31 91.7 378.97 87.82 378.97 83.54C378.97 79.3 378.31 75.46 376.99 72.02C375.71 68.58 373.73 65.84 371.05 63.8C368.37 61.76 364.95 60.74 360.79 60.74C356.87 60.74 353.63 61.7 351.07 63.62C348.55 65.54 346.67 68.22 345.43 71.66C344.23 75.1 343.63 79.06 343.63 83.54C343.63 88.02 344.23 91.98 345.43 95.42C346.63 98.86 348.53 101.56 351.13 103.52C353.73 105.48 357.09 106.46 361.21 106.46ZM427.825 117.74C419.945 117.74 413.525 116 408.565 112.52C403.605 109.04 400.565 104.14 399.445 97.82L412.285 95.84C413.085 99.2 414.925 101.86 417.805 103.82C420.725 105.74 424.345 106.7 428.665 106.7C432.585 106.7 435.645 105.9 437.845 104.3C440.085 102.7 441.205 100.5 441.205 97.7C441.205 96.06 440.805 94.74 440.005 93.74C439.245 92.7 437.625 91.72 435.145 90.8C432.665 89.88 428.885 88.74 423.805 87.38C418.245 85.94 413.825 84.4 410.545 82.76C407.305 81.08 404.985 79.14 403.585 76.94C402.225 74.7 401.545 72 401.545 68.84C401.545 64.92 402.585 61.5 404.665 58.58C406.745 55.66 409.665 53.4 413.425 51.8C417.225 50.2 421.665 49.4 426.745 49.4C431.705 49.4 436.125 50.18 440.005 51.74C443.885 53.3 447.025 55.52 449.425 58.4C451.825 61.24 453.265 64.58 453.745 68.42L440.905 70.76C440.465 67.64 439.005 65.18 436.525 63.38C434.045 61.58 430.825 60.6 426.865 60.44C423.065 60.28 419.985 60.92 417.625 62.36C415.265 63.76 414.085 65.7 414.085 68.18C414.085 69.62 414.525 70.84 415.405 71.84C416.325 72.84 418.085 73.8 420.685 74.72C423.285 75.64 427.125 76.74 432.205 78.02C437.645 79.42 441.965 80.98 445.165 82.7C448.365 84.38 450.645 86.4 452.005 88.76C453.405 91.08 454.105 93.9 454.105 97.22C454.105 103.62 451.765 108.64 447.085 112.28C442.445 115.92 436.025 117.74 427.825 117.74Z" fill="#1E1E1E"/>
</svg>
