<svg width="427" height="108" viewBox="0 0 427 108" fill="none" xmlns="http://www.w3.org/2000/svg">
<path d="M25.9386 100L2.4186 35.2H15.0786L32.2986 84.28L49.5186 35.2H62.1786L38.6586 100H25.9386ZM95.8489 101.62C91.5689 101.62 87.5489 100.82 83.7889 99.22C80.0289 97.58 76.7689 95.26 74.0089 92.26C71.2889 89.26 69.3089 85.72 68.0689 81.64L80.1889 78.28C81.3489 82 83.3689 84.86 86.2489 86.86C89.1289 88.82 92.3289 89.78 95.8489 89.74C99.0089 89.7 101.789 88.96 104.189 87.52C106.589 86.08 108.469 84.14 109.829 81.7C111.189 79.22 111.869 76.38 111.869 73.18C111.869 68.38 110.369 64.42 107.369 61.3C104.409 58.18 100.529 56.62 95.7289 56.62C94.3689 56.62 92.9689 56.82 91.5289 57.22C90.1289 57.62 88.8089 58.14 87.5689 58.78L81.6889 48.88L112.169 21.94L113.489 25.54H71.4889V13.6H123.449V25.54L98.1289 49.9L98.0089 45.82C103.449 45.82 108.169 47.04 112.169 49.48C116.169 51.88 119.249 55.16 121.409 59.32C123.609 63.44 124.709 68.06 124.709 73.18C124.709 78.7 123.409 83.6 120.809 87.88C118.249 92.16 114.789 95.52 110.429 97.96C106.109 100.4 101.249 101.62 95.8489 101.62ZM131.821 100L156.061 67.24L132.361 35.2H147.241L163.381 57.46L179.341 35.2H194.221L170.521 67.24L194.821 100H179.881L163.381 77.02L146.761 100H131.821ZM204.291 100V11.8H216.831V100H204.291ZM251.829 101.8C247.029 101.8 243.009 100.92 239.769 99.16C236.529 97.36 234.069 95 232.389 92.08C230.749 89.12 229.929 85.88 229.929 82.36C229.929 79.08 230.509 76.2 231.669 73.72C232.829 71.24 234.549 69.14 236.829 67.42C239.109 65.66 241.909 64.24 245.229 63.16C248.109 62.32 251.369 61.58 255.009 60.94C258.649 60.3 262.469 59.7 266.469 59.14C270.509 58.58 274.509 58.02 278.469 57.46L273.909 59.98C273.989 54.9 272.909 51.14 270.669 48.7C268.469 46.22 264.669 44.98 259.269 44.98C255.869 44.98 252.749 45.78 249.909 47.38C247.069 48.94 245.089 51.54 243.969 55.18L232.269 51.58C233.869 46.02 236.909 41.6 241.389 38.32C245.909 35.04 251.909 33.4 259.389 33.4C265.189 33.4 270.229 34.4 274.509 36.4C278.829 38.36 281.989 41.48 283.989 45.76C285.029 47.88 285.669 50.12 285.909 52.48C286.149 54.84 286.269 57.38 286.269 60.1V100H275.169V85.18L277.329 87.1C274.649 92.06 271.229 95.76 267.069 98.2C262.949 100.6 257.869 101.8 251.829 101.8ZM254.049 91.54C257.609 91.54 260.669 90.92 263.229 89.68C265.789 88.4 267.849 86.78 269.409 84.82C270.969 82.86 271.989 80.82 272.469 78.7C273.149 76.78 273.529 74.62 273.609 72.22C273.729 69.82 273.789 67.9 273.789 66.46L277.869 67.96C273.909 68.56 270.309 69.1 267.069 69.58C263.829 70.06 260.889 70.54 258.249 71.02C255.649 71.46 253.329 72 251.289 72.64C249.569 73.24 248.029 73.96 246.669 74.8C245.349 75.64 244.289 76.66 243.489 77.86C242.729 79.06 242.349 80.52 242.349 82.24C242.349 83.92 242.769 85.48 243.609 86.92C244.449 88.32 245.729 89.44 247.449 90.28C249.169 91.12 251.369 91.54 254.049 91.54ZM330.95 101.8C324.75 101.8 319.55 100.3 315.35 97.3C311.15 94.26 307.97 90.16 305.81 85C303.65 79.84 302.57 74.02 302.57 67.54C302.57 61.06 303.63 55.24 305.75 50.08C307.91 44.92 311.07 40.86 315.23 37.9C319.43 34.9 324.59 33.4 330.71 33.4C336.79 33.4 342.03 34.9 346.43 37.9C350.87 40.86 354.29 44.92 356.69 50.08C359.09 55.2 360.29 61.02 360.29 67.54C360.29 74.02 359.09 79.86 356.69 85.06C354.33 90.22 350.95 94.3 346.55 97.3C342.19 100.3 336.99 101.8 330.95 101.8ZM300.47 100V13.6H313.07V53.38H311.63V100H300.47ZM329.21 90.46C333.21 90.46 336.51 89.44 339.11 87.4C341.75 85.36 343.71 82.62 344.99 79.18C346.31 75.7 346.97 71.82 346.97 67.54C346.97 63.3 346.31 59.46 344.99 56.02C343.71 52.58 341.73 49.84 339.05 47.8C336.37 45.76 332.95 44.74 328.79 44.74C324.87 44.74 321.63 45.7 319.07 47.62C316.55 49.54 314.67 52.22 313.43 55.66C312.23 59.1 311.63 63.06 311.63 67.54C311.63 72.02 312.23 75.98 313.43 79.42C314.63 82.86 316.53 85.56 319.13 87.52C321.73 89.48 325.09 90.46 329.21 90.46ZM395.825 101.74C387.945 101.74 381.525 100 376.565 96.52C371.605 93.04 368.565 88.14 367.445 81.82L380.285 79.84C381.085 83.2 382.925 85.86 385.805 87.82C388.725 89.74 392.345 90.7 396.665 90.7C400.585 90.7 403.645 89.9 405.845 88.3C408.085 86.7 409.205 84.5 409.205 81.7C409.205 80.06 408.805 78.74 408.005 77.74C407.245 76.7 405.625 75.72 403.145 74.8C400.665 73.88 396.885 72.74 391.805 71.38C386.245 69.94 381.825 68.4 378.545 66.76C375.305 65.08 372.985 63.14 371.585 60.94C370.225 58.7 369.545 56 369.545 52.84C369.545 48.92 370.585 45.5 372.665 42.58C374.745 39.66 377.665 37.4 381.425 35.8C385.225 34.2 389.665 33.4 394.745 33.4C399.705 33.4 404.125 34.18 408.005 35.74C411.885 37.3 415.025 39.52 417.425 42.4C419.825 45.24 421.265 48.58 421.745 52.42L408.905 54.76C408.465 51.64 407.005 49.18 404.525 47.38C402.045 45.58 398.825 44.6 394.865 44.44C391.065 44.28 387.985 44.92 385.625 46.36C383.265 47.76 382.085 49.7 382.085 52.18C382.085 53.62 382.525 54.84 383.405 55.84C384.325 56.84 386.085 57.8 388.685 58.72C391.285 59.64 395.125 60.74 400.205 62.02C405.645 63.42 409.965 64.98 413.165 66.7C416.365 68.38 418.645 70.4 420.005 72.76C421.405 75.08 422.105 77.9 422.105 81.22C422.105 87.62 419.765 92.64 415.085 96.28C410.445 99.92 404.025 101.74 395.825 101.74Z" fill="#1E1E1E"/>
</svg>
